<svg version="1" xmlns="http://www.w3.org/2000/svg" width="682.667" height="682.667" viewBox="0 0 512.000000 512.000000"><path d="M252.5.8c-2.2.1-6.2 1-9 1.9-7 2.2-195.9 80.9-202 84.1-10.7 5.7-20.8 18.8-23.6 30.8-1.1 4.8-1.4 32.7-.4 42.9.2 2.7.7 8.1 1 12 3.5 43 14.7 90.8 30.7 130.5 5.5 13.5 18.6 40.8 24.2 50.5 2 3.3 3.9 6.7 4.3 7.5 1.4 2.9 14.7 23.6 19.7 30.5 37.4 51.9 84.2 91.8 134.2 114.5 11.5 5.2 12.3 5.4 22.2 5.8 12.8.5 16.6-.4 31.7-7.7 24.2-11.8 43.2-24.3 67-44.1 15.7-13.1 39-37.1 50.5-52 1.9-2.5 3.7-4.7 4-5 3-2.7 19.6-27.1 27.8-40.6 11.8-19.7 22.7-41.9 30.9-62.9 3.8-9.9 11.3-31.9 11.9-35 .2-1.1.8-3.1 1.3-4.5 2.7-7.1 10.8-45.3 12.6-59.5.4-2.8.8-5.9 1-7.1.2-1.1.6-5.2 1-9s.8-7.9 1-9.1c1.8-11.7 2.4-48.8.9-56.3-2.7-13.1-12-25.9-23.2-31.8-4.5-2.4-123.5-52.6-158.2-66.7-3-1.2-14.3-5.9-25.1-10.3-12.5-5.2-21.5-8.4-25-8.7-3-.4-5.8-.7-6.4-.8-.5-.1-2.8-.1-5 .1zM343 101.9c46.5 19.3 85.6 35.7 86.9 36.5 2.3 1.3 2.4 1.8 2.2 9.7-.1 4.6-.4 9.7-.6 11.4-.2 1.6-.6 6.4-1 10.5-.9 10.8-1.4 15.4-3.1 25.5-.8 4.9-1.7 10.6-2 12.5-.3 1.9-.7 4.3-1 5.2-.3 1-.7 3-1 4.5-.3 1.6-2 8.9-3.9 16.3-11.8 46.5-34 92.6-62 128.4-10.6 13.6-12.2 15.4-27.9 31.1-15.8 15.7-25.7 24-42.6 35.4-10.4 7-27.7 17.1-29.4 17.1-.3 0-.6-85.5-.6-190.1 0-104.5.3-189.8.8-189.6.4.3 38.7 16.3 85.2 35.6z"/></svg>