<?xml version="1.0" standalone="no"?>
<!DOCTYPE svg PUBLIC "-//W3C//DTD SVG 20010904//EN"
 "http://www.w3.org/TR/2001/REC-SVG-20010904/DTD/svg10.dtd">
<svg version="1.0" xmlns="http://www.w3.org/2000/svg"
 width="1024.000000pt" height="1024.000000pt" viewBox="0 0 1024.000000 1024.000000"
 preserveAspectRatio="xMidYMid meet">
<metadata>
Created by potrace 1.11, written by Peter Selinger 2001-2013
</metadata>
<g transform="translate(0.000000,1024.000000) scale(0.100000,-0.100000)"
fill="#000000" stroke="none">
<path d="M4968 9114 c-49 -12 -221 -77 -313 -120 -16 -7 -86 -37 -155 -65 -69
-28 -140 -57 -157 -65 -50 -21 -90 -38 -178 -74 -44 -18 -120 -50 -170 -71
-49 -20 -130 -54 -180 -74 -49 -21 -115 -48 -145 -61 -30 -13 -100 -41 -155
-64 -55 -23 -109 -45 -120 -50 -11 -5 -60 -26 -110 -46 -49 -20 -103 -42 -120
-49 -16 -8 -97 -42 -180 -76 -82 -33 -163 -67 -180 -74 -16 -8 -151 -64 -300
-126 -262 -108 -299 -124 -395 -165 -24 -10 -47 -19 -50 -20 -6 -1 -23 -8
-157 -65 -97 -41 -150 -65 -207 -96 -56 -30 -191 -175 -232 -248 -46 -83 -89
-200 -99 -270 -10 -71 -3 -507 9 -614 3 -20 8 -76 11 -126 3 -49 12 -142 20
-205 8 -63 17 -140 20 -170 3 -30 14 -109 25 -175 11 -66 22 -138 25 -160 4
-22 15 -83 26 -135 11 -52 22 -105 25 -118 10 -50 45 -199 54 -232 6 -19 28
-102 51 -185 72 -268 219 -687 314 -900 7 -16 25 -58 39 -92 28 -67 182 -382
219 -448 65 -116 99 -173 180 -305 50 -80 103 -161 118 -181 16 -20 29 -40 29
-43 0 -3 6 -14 14 -23 8 -10 54 -72 102 -138 47 -66 93 -127 100 -135 8 -8 28
-33 45 -55 84 -111 104 -135 265 -314 195 -217 421 -441 564 -557 74 -61 84
-69 99 -84 43 -41 363 -270 467 -335 251 -156 652 -350 788 -383 38 -9 252 -9
287 0 124 31 581 241 640 294 8 8 19 14 23 14 4 0 32 16 62 35 30 19 58 35 63
35 5 0 11 3 13 8 2 4 37 29 78 56 74 48 280 195 290 206 3 3 28 24 55 45 28
22 52 42 55 45 3 3 21 18 40 34 209 169 651 620 835 851 22 27 45 55 50 62 6
6 20 24 32 40 12 15 34 44 50 65 15 20 37 49 48 64 11 15 34 46 50 68 75 100
231 340 316 484 30 51 63 108 73 125 31 52 193 380 201 407 4 14 12 31 18 38
24 30 256 640 271 714 2 7 6 20 9 28 6 16 33 109 68 230 23 84 85 321 93 360
3 14 12 54 20 90 27 117 68 348 81 453 3 23 7 51 9 62 14 75 19 116 31 250 3
39 8 81 10 95 7 41 25 309 31 470 5 152 5 350 0 376 -2 12 -7 38 -10 57 -27
168 -147 350 -296 449 -44 29 -85 53 -90 53 -5 0 -15 6 -21 13 -7 6 -17 12
-21 12 -9 0 -591 240 -643 265 -16 7 -82 35 -145 61 -63 25 -134 55 -157 65
-23 10 -45 19 -48 19 -3 0 -25 9 -48 19 -23 10 -175 74 -337 141 -162 67 -313
130 -335 140 -22 10 -103 43 -180 74 -77 32 -153 63 -170 71 -16 7 -140 59
-275 115 -135 56 -258 108 -275 115 -38 17 -357 148 -450 186 -125 50 -278 62
-407 33z m374 -1093 c117 -49 229 -96 248 -104 19 -9 134 -57 255 -108 121
-50 321 -134 445 -186 124 -52 279 -117 345 -144 66 -27 129 -54 140 -59 11
-5 99 -43 195 -83 96 -40 340 -143 542 -228 l367 -154 -4 -115 c-5 -122 -14
-281 -20 -342 -2 -20 -7 -67 -10 -105 -11 -120 -13 -147 -18 -178 -3 -16 -8
-51 -11 -76 -4 -25 -9 -57 -11 -70 -2 -13 -6 -44 -9 -69 -7 -50 -13 -83 -20
-108 -3 -9 -7 -33 -10 -52 -10 -69 -38 -206 -53 -265 -8 -33 -16 -67 -18 -75
-10 -47 -29 -121 -41 -160 -8 -25 -28 -90 -45 -145 -32 -104 -131 -388 -154
-440 -7 -16 -35 -79 -60 -140 -61 -141 -159 -338 -237 -473 -34 -58 -66 -115
-73 -127 -16 -30 -178 -282 -193 -300 -4 -5 -23 -32 -42 -60 -213 -305 -552
-681 -810 -898 -47 -40 -93 -79 -103 -89 -50 -45 -293 -224 -347 -256 -16 -10
-70 -43 -120 -74 -51 -32 -96 -58 -101 -58 -5 0 -9 -4 -9 -10 0 -5 -9 -10 -20
-10 -11 0 -20 -3 -20 -8 0 -4 -15 -14 -32 -21 -18 -8 -59 -30 -91 -48 -33 -18
-63 -33 -68 -33 -5 0 -9 1211 -9 2980 0 1639 2 2980 5 2980 3 0 101 -40 217
-89z"/>
</g>
</svg>
